<mxfile host="app.diagrams.net" modified="2024-05-25T01:33:58.334Z" agent="Mozilla/5.0 (Macintosh; Intel Mac OS X 10_15_7) AppleWebKit/605.1.15 (KHTML, like Gecko) Version/16.5.1 Safari/605.1.15" version="24.4.3" etag="k0wQYn1Wq6_5dK7vmVaL" type="github">
  <diagram name="PÃ¡gina-1" id="L_EpOZ7FR6wsIZzOMvxe">
    <mxGraphModel>
      <root>
        <mxCell id="0" />
        <mxCell id="1" parent="0" />
      </root>
    </mxGraphModel>
  </diagram>
</mxfile>
